<?xml version="1.0" standalone="no"?>
<!DOCTYPE svg PUBLIC "-//W3C//DTD SVG 20010904//EN"
 "http://www.w3.org/TR/2001/REC-SVG-20010904/DTD/svg10.dtd">
<svg version="1.0" xmlns="http://www.w3.org/2000/svg"
 width="375.000000pt" height="360.000000pt" viewBox="0 0 375.000000 360.000000"
 preserveAspectRatio="xMidYMid meet">

<g transform="translate(0.000000,360.000000) scale(0.100000,-0.100000)"
fill="#000000" stroke="none">
<path d="M0 1800 l0 -1800 1875 0 1875 0 0 1800 0 1800 -1875 0 -1875 0 0
-1800z m2958 1329 c47 -10 63 -24 339 -302 289 -291 290 -292 297 -342 14
-112 55 -59 -805 -1047 -433 -496 -796 -912 -809 -923 -18 -16 -36 -20 -100
-20 -64 0 -82 4 -100 20 -13 11 -376 427 -809 923 -860 988 -819 935 -805
1047 7 50 8 51 297 342 255 257 295 294 331 302 60 13 2102 14 2164 0z"/>
<path d="M545 2739 c-213 -215 -286 -294 -279 -304 20 -29 1609 -1854 1614
-1854 5 0 1594 1825 1614 1854 7 10 -66 89 -279 304 l-288 291 -1047 0 -1047
0 -288 -291z m636 -9 c-76 -65 -143 -153 -192 -255 -49 -102 -69 -178 -76
-288 -3 -48 -9 -86 -13 -85 -10 4 -290 326 -290 333 0 4 73 83 162 176 l162
169 154 0 154 0 -61 -50z m1807 -119 c89 -93 162 -172 162 -175 0 -8 -456
-533 -470 -541 -6 -4 -10 56 -10 166 0 146 -2 175 -17 191 -15 17 -43 18 -456
18 -396 0 -442 -2 -459 -17 -16 -15 -18 -35 -18 -218 0 -228 -1 -224 75 -233
51 -5 89 14 107 54 l11 24 174 0 173 0 0 -74 0 -74 -52 -22 c-119 -51 -353
-66 -490 -31 -169 43 -292 134 -351 258 -30 64 -32 75 -32 179 0 107 1 112 37
185 48 97 122 168 222 214 95 45 191 59 336 52 124 -7 204 -24 287 -62 l53
-24 -6 -45 c-6 -42 -5 -47 32 -80 27 -25 48 -36 70 -36 29 0 47 17 188 184
163 193 176 217 139 258 -15 17 -13 18 58 18 l75 0 162 -169z m-1113 -1340
c72 -1 161 4 199 9 38 6 71 8 73 6 6 -6 -256 -306 -267 -306 -8 0 -256 279
-272 306 -5 7 17 6 65 -3 40 -7 131 -12 202 -12z"/>
</g>
</svg>
